<?xml version="1.0" encoding="UTF-8" standalone="no"?>
<!DOCTYPE svg PUBLIC "-//W3C//DTD SVG 20010904//EN" "http://www.w3.org/TR/2001/REC-SVG-20010904/DTD/svg10.dtd">
<svg version="1.0" xmlns="http://www.w3.org/2000/svg" width="512pt" height="512pt" viewBox="0 0 512 512" preserveAspectRatio="xMidYMid meet">
<g fill="#148c84" stroke="none">
<rect width="512" height="512" rx="75" ry="75"/>
</g>

<g transform="translate(0,512) scale(0.1,-0.1)" fill="#ffffff" stroke="none">
<path d="M1360 4337 c-13 -7 -46 -41 -74 -77 l-51 -64 1 -256 c2 -283 13 -501 49 -975 14 -176 34 -450 44 -608 25 -357 27 -346 -79 -400 -182 -91 -374 -130 -640 -128 -173 0 -515 16 -577 27 l-33 5 0 -165 0 -165 54 -6 c81 -10 751 1 829 14 94 15 271 74 366 122 184 92 251 198 281 444 14 115 26 161 46 169 9 4 40 -8 73 -28 125 -76 228 -89 634 -85 229 3 298 7 310 18 38 31 100 292 75 316 -4 4 -52 2 -108 -4 -159 -17 -593 -14 -665 4 -138 36 -246 110 -289 197 -80 164 -120 495 -151 1245 -8 206 -18 360 -25 372 -16 31 -42 42 -70 28z"/>
<path d="M3466 3981 c-33 -22 -86 -86 -123 -148 -19 -34 -22 -46 -13 -62 20 -39 206 -151 249 -151 25 0 115 68 146 110 56 76 37 131 -74 204 -106 71 -137 79 -185 47z"/>
<path d="M4499 3468 c-49 -38 -136 -148 -145 -183 -12 -47 5 -74 86 -141 44 -36 80 -71 80 -77 0 -7 -34 -55 -75 -107 -42 -52 -78 -105 -81 -117 -8 -29 19 -65 104 -143 108 -100 98 -101 213 17 138 142 140 160 24 277 -41 42 -75 84 -75 95 0 10 20 46 44 78 58 79 68 99 68 138 0 41 -14 66 -65 122 -44 48 -84 73 -116 73 -11 0 -39 -15 -62 -32z"/>
<path d="M2753 3447 c-64 -60 -117 -149 -109 -181 6 -26 101 -95 187 -136 57 -28 80 -23 148 30 61 49 97 113 87 156 -14 54 -154 158 -229 171 -32 5 -40 1 -84 -40z"/>
<path d="M3697 3086 c-15 -25 -30 -75 -53 -188 -17 -81 -76 -145 -184 -198 -97 -48 -181 -64 -292 -56 -44 3 -98 2 -120 -2 -36 -7 -40 -11 -52 -52 -7 -25 -14 -79 -16 -122 -2 -68 0 -79 22 -102 13 -14 52 -35 88 -47 84 -28 90 -41 53 -117 -98 -194 -529 -515 -764 -567 -66 -15 -92 -16 -191 -6 -63 6 -158 20 -211 31 -53 11 -107 20 -121 20 -31 0 -96 -62 -91 -87 9 -49 372 -171 613 -208 23 -3 87 1 144 9 115 18 168 42 336 152 171 112 289 256 401 489 50 102 58 128 62 191 2 41 10 78 16 82 6 5 43 17 81 26 145 35 230 96 289 207 31 58 54 89 67 89 10 0 35 -78 59 -190 29 -134 75 -268 115 -336 73 -123 217 -225 370 -261 90 -21 334 -31 598 -25 l207 5 0 162 0 163 -377 4 c-358 5 -382 6 -447 27 -56 19 -79 33 -120 75 -72 73 -105 142 -180 378 -79 244 -112 329 -160 401 -52 78 -111 99 -142 53z"/>
<path d="M1368 1345 c-92 -83 -148 -153 -148 -185 0 -32 18 -59 97 -142 34 -36 63 -73 63 -81 0 -8 -18 -38 -40 -66 -95 -119 -101 -157 -42 -242 68 -98 136 -122 203 -74 42 31 123 128 145 172 24 51 13 70 -94 161 -34 30 -62 61 -62 70 0 10 30 51 66 92 36 41 73 90 82 108 15 31 15 35 -3 69 -17 32 -144 155 -180 176 -9 5 -38 -14 -87 -58z"/>
</g>
</svg>