<svg width="33" height="34" viewBox="0 0 33 34" fill="none" xmlns="http://www.w3.org/2000/svg">
<path d="M31.3104 5.92622C31.3104 5.37394 30.8627 4.92622 30.3104 4.92622C29.7581 4.92622 29.3104 5.37394 29.3104 5.92622H31.3104ZM30.3104 28.4572L31.3104 28.4594V28.4572H30.3104ZM26.7309 32.0445V33.0445L26.7352 33.0445L26.7309 32.0445ZM4.57955 32.0445L4.57524 33.0445H4.57955V32.0445ZM1 28.465L-9.24984e-06 28.465L9.24975e-06 28.4693L1 28.465ZM1 5.92622L0 5.92192V5.92622H1ZM4.57955 2.34668L4.57955 1.34667L4.57524 1.34669L4.57955 2.34668ZM26.7309 3.34668C27.2832 3.34668 27.7309 2.89896 27.7309 2.34668C27.7309 1.79439 27.2832 1.34668 26.7309 1.34668V3.34668ZM14.6691 19.2861C14.6061 18.7374 14.1102 18.3437 13.5615 18.4067C13.0128 18.4697 12.6191 18.9656 12.6821 19.5142L14.6691 19.2861ZM16.093 21.3604L16.1866 20.3648C16.1243 20.3589 16.0616 20.3589 15.9993 20.3648L16.093 21.3604ZM18.5103 19.4002L19.5038 19.5142C19.5124 19.4394 19.5125 19.3638 19.5041 19.2889L18.5103 19.4002ZM16.1084 17.4322L16.0221 16.4359C16.0174 16.4363 16.0126 16.4368 16.0079 16.4372L16.1084 17.4322ZM13.6756 15.472L12.6821 15.3579C12.6734 15.4335 12.6734 15.5098 12.682 15.5854L13.6756 15.472ZM16.093 13.5117L15.9993 14.5073C16.0616 14.5132 16.1243 14.5132 16.1866 14.5073L16.093 13.5117ZM17.5168 15.586C17.5798 16.1347 18.0757 16.5284 18.6244 16.4654C19.1731 16.4024 19.5668 15.9066 19.5038 15.3579L17.5168 15.586ZM10.5764 9.90844L10.6153 8.90919C10.6024 8.90869 10.5894 8.90844 10.5764 8.90844L10.5764 9.90844ZM10.4215 9.90844L10.4095 10.9084H10.4215V9.90844ZM8.80217 16.1068L9.78626 16.2844C9.86281 15.8604 9.65914 15.435 9.28082 15.2288L8.80217 16.1068ZM8.6782 17.4317L7.67821 17.4237L7.6782 17.4308L8.6782 17.4317ZM15.8838 24.9549L15.8416 25.954C15.8551 25.9546 15.8687 25.9549 15.8823 25.9549L15.8838 24.9549ZM22.6866 18.2947C22.6153 18.8424 23.0016 19.3441 23.5493 19.4153C24.0969 19.4865 24.5986 19.1003 24.6699 18.5526L22.6866 18.2947ZM23.7479 17.4319L24.7479 17.443V17.4319H23.7479ZM16.2169 9.90092L16.2138 10.9009H16.2169V9.90092ZM12.6761 10.7842L11.9936 11.515C12.3066 11.8074 12.7711 11.8679 13.1486 11.6655L12.6761 10.7842ZM16.2092 24.9554L16.2108 23.9554L16.2107 23.9554L16.2092 24.9554ZM20.0289 23.9094L20.5738 23.0709C20.2546 22.8635 19.8453 22.8553 19.5181 23.0498L20.0289 23.9094ZM21.7955 24.4285V23.4285L21.7909 23.4286L21.7955 24.4285ZM26.0961 21.1279C26.0961 20.5756 25.6484 20.1279 25.0961 20.1279C24.5438 20.1279 24.0961 20.5756 24.0961 21.1279H26.0961ZM29.3104 5.92622V28.4572H31.3104V5.92622H29.3104ZM29.3104 28.4551C29.309 29.1404 29.0364 29.7974 28.5524 30.2825L29.9681 31.6952C30.8253 30.8361 31.3078 29.6729 31.3104 28.4594L29.3104 28.4551ZM28.5524 30.2825C28.0683 30.7676 27.4119 31.0416 26.7266 31.0445L26.7352 33.0445C27.9487 33.0393 29.1109 32.5542 29.9681 31.6952L28.5524 30.2825ZM26.7309 31.0445H4.57955V33.0445H26.7309V31.0445ZM4.58385 31.0445C3.89947 31.0416 3.24397 30.7684 2.76004 30.2845L1.34582 31.6987C2.20272 32.5556 3.36342 33.0393 4.57524 33.0445L4.58385 31.0445ZM2.76004 30.2845C2.27611 29.8005 2.00293 29.145 1.99999 28.4607L9.24975e-06 28.4693C0.00522146 29.6811 0.488927 30.8418 1.34582 31.6987L2.76004 30.2845ZM2 28.465V5.92622H0V28.465H2ZM1.99999 5.93053C2.00293 5.24615 2.27611 4.59065 2.76004 4.10672L1.34582 2.6925C0.488927 3.5494 0.00522146 4.7101 9.24975e-06 5.92192L1.99999 5.93053ZM2.76004 4.10672C3.24397 3.62279 3.89947 3.34961 4.58385 3.34667L4.57524 1.34669C3.36342 1.3519 2.20272 1.83561 1.34582 2.6925L2.76004 4.10672ZM4.57955 3.34668H26.7309V1.34668H4.57955V3.34668ZM30.5 4.5C31.6045 4.5 32.5 3.60457 32.5 2.5H30.5V4.5ZM32.5 2.5C32.5 1.39543 31.6045 0.5 30.5 0.5V2.5H32.5ZM30.5 0.5C29.3954 0.5 28.5 1.39543 28.5 2.5H30.5V0.5ZM28.5 2.5C28.5 3.60457 29.3954 4.5 30.5 4.5V2.5H28.5ZM12.6821 19.5142C12.7783 20.3522 13.1992 21.1191 13.8543 21.6504L15.114 20.0969C14.8653 19.8953 14.7056 19.6042 14.6691 19.2861L12.6821 19.5142ZM13.8543 21.6504C14.5095 22.1817 15.3468 22.435 16.1866 22.356L15.9993 20.3648C15.6805 20.3948 15.3627 20.2986 15.114 20.0969L13.8543 21.6504ZM15.9993 22.356C16.8391 22.435 17.6764 22.1817 18.3316 21.6504L17.0719 20.0969C16.8232 20.2986 16.5054 20.3948 16.1866 20.3648L15.9993 22.356ZM18.3316 21.6504C18.9867 21.1191 19.4076 20.3522 19.5038 19.5142L17.5168 19.2861C17.4803 19.6042 17.3206 19.8953 17.0719 20.0969L18.3316 21.6504ZM19.5041 19.2889C19.4105 18.4531 18.9941 17.687 18.3435 17.154L17.076 18.701C17.3229 18.9033 17.481 19.1942 17.5165 19.5114L19.5041 19.2889ZM18.3435 17.154C17.693 16.621 16.86 16.3633 16.0221 16.4359L16.1948 18.4284C16.5128 18.4009 16.8291 18.4987 17.076 18.701L18.3435 17.154ZM16.0079 16.4372C15.6878 16.4696 15.3677 16.3745 15.1172 16.1726L13.8623 17.73C14.5225 18.2619 15.3655 18.5123 16.209 18.4271L16.0079 16.4372ZM15.1172 16.1726C14.8666 15.9707 14.7056 15.6783 14.6691 15.3586L12.682 15.5854C12.7782 16.4276 13.2022 17.1981 13.8623 17.73L15.1172 16.1726ZM14.6691 15.586C14.7056 15.2679 14.8653 14.9768 15.114 14.7752L13.8543 13.2217C13.1992 13.753 12.7783 14.5199 12.6821 15.3579L14.6691 15.586ZM15.114 14.7752C15.3627 14.5735 15.6805 14.4774 15.9993 14.5073L16.1866 12.5161C15.3468 12.4371 14.5095 12.6905 13.8543 13.2217L15.114 14.7752ZM16.1866 14.5073C16.5054 14.4774 16.8232 14.5735 17.0719 14.7752L18.3316 13.2217C17.6764 12.6905 16.8391 12.4371 15.9993 12.5161L16.1866 14.5073ZM17.0719 14.7752C17.3206 14.9768 17.4803 15.2679 17.5168 15.586L19.5038 15.3579C19.4076 14.5199 18.9867 13.753 18.3316 13.2217L17.0719 14.7752ZM10.5764 8.90844H10.4215V10.9084H10.5764V8.90844ZM10.4334 8.90851C9.47338 8.89703 8.53708 9.20714 7.77369 9.78946L8.98669 11.3796C9.39507 11.0681 9.89594 10.9022 10.4095 10.9084L10.4334 8.90851ZM7.77369 9.78946C7.01031 10.3718 6.46373 11.1928 6.22104 12.1218L8.1561 12.6273C8.28593 12.1304 8.57831 11.6911 8.98669 11.3796L7.77369 9.78946ZM6.22104 12.1218C5.97835 13.0507 6.05351 14.0342 6.43452 14.9155L8.2703 14.1218C8.06647 13.6503 8.02627 13.1242 8.1561 12.6273L6.22104 12.1218ZM6.43452 14.9155C6.81554 15.7968 7.48051 16.5252 8.32352 16.9848L9.28082 15.2288C8.82985 14.9829 8.47413 14.5932 8.2703 14.1218L6.43452 14.9155ZM7.81807 15.9291C7.72903 16.4224 7.68224 16.9224 7.67823 17.4237L9.67817 17.4397C9.68127 17.0522 9.71743 16.6657 9.78626 16.2844L7.81807 15.9291ZM7.6782 17.4308C7.67624 19.6303 8.52466 21.7454 10.046 23.3339L11.4904 21.9505C10.326 20.7348 9.6767 19.116 9.6782 17.4326L7.6782 17.4308ZM10.046 23.3339C11.5674 24.9223 13.644 25.8612 15.8416 25.954L15.926 23.9558C14.2441 23.8847 12.6548 23.1662 11.4904 21.9505L10.046 23.3339ZM24.6699 18.5526C24.7177 18.1846 24.7438 17.8141 24.7479 17.443L22.748 17.4208C22.7448 17.7131 22.7242 18.0049 22.6866 18.2947L24.6699 18.5526ZM24.7479 17.4319C24.7479 15.1693 23.8491 12.9995 22.2493 11.3996L20.835 12.8138C22.0598 14.0386 22.7479 15.6998 22.7479 17.4319H24.7479ZM22.2493 11.3996C20.6494 9.79971 18.4795 8.90092 16.2169 8.90092V10.9009C17.9491 10.9009 19.6103 11.589 20.835 12.8138L22.2493 11.3996ZM16.2201 8.90092C14.8189 8.89655 13.4387 9.24086 12.2037 9.90281L13.1486 11.6655C14.0911 11.1603 15.1445 10.8976 16.2138 10.9009L16.2201 8.90092ZM13.3587 10.0533C12.6113 9.3553 11.6376 8.94894 10.6153 8.90919L10.5376 10.9077C11.0799 10.9288 11.5967 11.1444 11.9936 11.515L13.3587 10.0533ZM15.8823 25.9549L16.2077 25.9554L16.2107 23.9554L15.8853 23.9549L15.8823 25.9549ZM16.2076 25.9554C17.7322 25.9579 19.2291 25.548 20.5398 24.7691L19.5181 23.0498C18.5175 23.6444 17.3747 23.9573 16.2108 23.9554L16.2076 25.9554ZM19.4841 24.748C20.1732 25.1957 20.9782 25.4323 21.8 25.4285L21.7909 23.4286C21.359 23.4305 20.9359 23.3062 20.5738 23.0709L19.4841 24.748ZM21.7955 25.4285C22.9361 25.4285 24.0299 24.9755 24.8365 24.1689L23.4222 22.7547C22.9908 23.1862 22.4056 23.4285 21.7955 23.4285V25.4285ZM24.8365 24.1689C25.643 23.3624 26.0961 22.2685 26.0961 21.1279H24.0961C24.0961 21.7381 23.8537 22.3233 23.4222 22.7547L24.8365 24.1689Z" fill="#F3EFE5"/>
</svg>
