<svg width="33" height="34" viewBox="0 0 33 34" fill="none" xmlns="http://www.w3.org/2000/svg">
<path d="M31.5507 5.93397C31.5507 5.38169 31.1029 4.93397 30.5507 4.93397C29.9984 4.93397 29.5507 5.38169 29.5507 5.93397H31.5507ZM30.5507 28.465L31.5507 28.4671V28.465H30.5507ZM26.9711 32.0523V33.0523L26.9754 33.0522L26.9711 32.0523ZM4.81978 32.0523L4.81548 33.0523H4.81978V32.0523ZM1.24023 28.4727L0.240225 28.4727L0.240244 28.477L1.24023 28.4727ZM1.24023 5.93397L0.240234 5.93183V5.93397H1.24023ZM4.81978 2.34668L4.81978 1.34667L4.81547 1.34669L4.81978 2.34668ZM26.9711 3.34668C27.5234 3.34668 27.9711 2.89896 27.9711 2.34668C27.9711 1.79439 27.5234 1.34668 26.9711 1.34668V3.34668ZM14.2779 15.0475C14.6685 15.4381 15.3016 15.4381 15.6922 15.0475C16.0827 14.657 16.0827 14.0239 15.6922 13.6333L14.2779 15.0475ZM13.4742 12.8296L14.1813 12.1225C13.7908 11.732 13.1576 11.732 12.7671 12.1225L13.4742 12.8296ZM12.8001 13.5037L12.093 12.7966L12.0928 12.7968L12.8001 13.5037ZM12.8001 16.8663L12.0928 17.5731L12.093 17.5734L12.8001 16.8663ZM16.5036 20.5698L15.7965 21.2769L15.7968 21.2771L16.5036 20.5698ZM18.1849 21.2658L18.1849 20.2658L18.1849 21.2658ZM19.8662 20.5698L20.5731 21.2771L20.5733 21.2769L19.8662 20.5698ZM20.5403 19.8957L21.2474 20.6028C21.637 20.2132 21.6381 19.5819 21.2498 19.191L20.5403 19.8957ZM20.1109 18.0443C19.7217 17.6525 19.0885 17.6503 18.6967 18.0395C18.3048 18.4287 18.3027 19.0619 18.6919 19.4537L20.1109 18.0443ZM25.1348 17.1992L26.1348 17.1991L26.1348 17.199L25.1348 17.1992ZM11.8936 24.8542L12.3928 23.9876C12.1637 23.8557 11.8918 23.8198 11.6364 23.8878L11.8936 24.8542ZM7.46956 26.0319L6.50321 25.7746C6.41146 26.1193 6.51024 26.4868 6.76245 26.739C7.01467 26.9912 7.38212 27.09 7.7268 26.9982L7.46956 26.0319ZM8.64725 21.6078L9.61359 21.865C9.68156 21.6097 9.64572 21.3379 9.51391 21.1089L8.64725 21.6078ZM29.5507 5.93397V28.465H31.5507V5.93397H29.5507ZM29.5507 28.4628C29.5492 29.1482 29.2767 29.8051 28.7926 30.2902L30.2083 31.7029C31.0655 30.8439 31.5481 29.6806 31.5507 28.4671L29.5507 28.4628ZM28.7926 30.2902C28.3085 30.7754 27.6522 31.0493 26.9668 31.0523L26.9754 33.0522C28.189 33.047 29.3511 32.562 30.2083 31.7029L28.7926 30.2902ZM26.9711 31.0523H4.81978V33.0523H26.9711V31.0523ZM4.82408 31.0523C4.13971 31.0493 3.4842 30.7761 3.00027 30.2922L1.58606 31.7064C2.44295 32.5633 3.60366 33.047 4.81548 33.0522L4.82408 31.0523ZM3.00027 30.2922C2.51634 29.8083 2.24317 29.1528 2.24023 28.4684L0.240244 28.477C0.245456 29.6888 0.729162 30.8495 1.58606 31.7064L3.00027 30.2922ZM2.24023 28.4727V5.93397H0.240234V28.4727H2.24023ZM2.24023 5.93612C2.2417 5.25077 2.51422 4.59384 2.99831 4.1087L1.58257 2.69602C0.725395 3.55505 0.242841 4.71829 0.240237 5.93183L2.24023 5.93612ZM2.99831 4.1087C3.4824 3.62356 4.13875 3.34962 4.82409 3.34667L4.81547 1.34669C3.60194 1.35192 2.43975 1.83699 1.58257 2.69602L2.99831 4.1087ZM4.81978 3.34668H26.9711V1.34668H4.81978V3.34668ZM30.5001 4.5C31.6046 4.5 32.5001 3.60457 32.5001 2.5H30.5001V4.5ZM32.5001 2.5C32.5001 1.39543 31.6046 0.5 30.5001 0.5V2.5H32.5001ZM30.5001 0.5C29.3955 0.5 28.5001 1.39543 28.5001 2.5H30.5001V0.5ZM28.5001 2.5C28.5001 3.60457 29.3955 4.5 30.5001 4.5V2.5H28.5001ZM15.6922 13.6333L14.1813 12.1225L12.7671 13.5367L14.2779 15.0475L15.6922 13.6333ZM12.7671 12.1225L12.093 12.7966L13.5072 14.2108L14.1813 13.5367L12.7671 12.1225ZM12.0928 12.7968C11.4597 13.4304 11.1041 14.2893 11.1041 15.185H13.1041C13.1041 14.8195 13.2492 14.469 13.5075 14.2105L12.0928 12.7968ZM11.1041 15.185C11.1041 16.0806 11.4597 16.9396 12.0928 17.5731L13.5075 16.1594C13.2492 15.9009 13.1041 15.5504 13.1041 15.185H11.1041ZM12.093 17.5734L15.7965 21.2769L17.2107 19.8627L13.5072 16.1592L12.093 17.5734ZM15.7968 21.2771C16.4303 21.9102 17.2893 22.2658 18.1849 22.2658L18.1849 20.2658C17.8195 20.2658 17.469 20.1207 17.2105 19.8624L15.7968 21.2771ZM18.1849 22.2658C19.0806 22.2658 19.9395 21.9102 20.5731 21.2771L19.1594 19.8624C18.9009 20.1207 18.5504 20.2658 18.1849 20.2658L18.1849 22.2658ZM20.5733 21.2769L21.2474 20.6028L19.8332 19.1886L19.1591 19.8627L20.5733 21.2769ZM21.2498 19.191L20.1109 18.0443L18.6919 19.4537L19.8308 20.6004L21.2498 19.191ZM24.1348 17.1994C24.135 18.5737 23.7736 19.9239 23.0869 21.1143L24.8193 22.1137C25.6814 20.6193 26.1351 18.9243 26.1348 17.1991L24.1348 17.1994ZM23.0869 21.1143C22.4001 22.3048 21.4122 23.2936 20.2224 23.9814L21.2234 25.7129C22.717 24.8494 23.9572 23.6081 24.8193 22.1137L23.0869 21.1143ZM20.2224 23.9814C19.0326 24.6693 17.6828 25.032 16.3084 25.0331L16.31 27.0331C18.0353 27.0317 19.7298 26.5764 21.2234 25.7129L20.2224 23.9814ZM16.3084 25.0331C14.9341 25.0341 13.5837 24.6736 12.3928 23.9876L11.3945 25.7207C12.8895 26.5818 14.5847 27.0344 16.31 27.0331L16.3084 25.0331ZM9.51391 21.1089C8.91478 20.0681 8.56301 18.9035 8.48577 17.705L6.48991 17.8336C6.58687 19.3381 7.02847 20.8001 7.78058 22.1067L9.51391 21.1089ZM8.48577 17.705C8.40854 16.5066 8.60792 15.3064 9.0685 14.1973L7.22143 13.4303C6.64325 14.8226 6.39296 16.3292 6.48991 17.8336L8.48577 17.705ZM9.0685 14.1973C9.52908 13.0882 10.2385 12.0999 11.142 11.3087L9.82437 9.80409C8.69021 10.7973 7.79962 12.038 7.22143 13.4303L9.0685 14.1973ZM11.142 11.3087C12.0455 10.5175 13.1188 9.9447 14.2789 9.63448L13.7623 7.70236C12.3059 8.09178 10.9585 8.81089 9.82437 9.80409L11.142 11.3087ZM14.2789 9.63448C15.4391 9.32427 16.6551 9.28498 17.8328 9.51967L18.2237 7.55823C16.7452 7.26362 15.2187 7.31293 13.7623 7.70236L14.2789 9.63448ZM17.8328 9.51967C19.0106 9.75435 20.1187 10.2567 21.0713 10.9879L22.2891 9.4014C21.0932 8.48347 19.7022 7.85283 18.2237 7.55823L17.8328 9.51967ZM21.0713 10.9879C22.024 11.7191 22.7957 12.6596 23.3269 13.7367L25.1206 12.852C24.4538 11.5 23.485 10.3193 22.2891 9.4014L21.0713 10.9879ZM23.3269 13.7367C23.8581 14.8137 24.1346 15.9985 24.1348 17.1995L26.1348 17.199C26.1345 15.6914 25.7875 14.2041 25.1206 12.852L23.3269 13.7367ZM11.6364 23.8878L7.21232 25.0655L7.7268 26.9982L12.1509 25.8205L11.6364 23.8878ZM8.43591 26.2891L9.61359 21.865L7.6809 21.3506L6.50321 25.7746L8.43591 26.2891Z" fill="#F3EFE5"/>
</svg>
